<svg width="64" height="64" viewBox="0 0 64 64" fill="none" xmlns="http://www.w3.org/2000/svg">
<path d="M60.8174 59.1167L45.227 43.5227C53.9317 33.93 53.656 19.087 44.3963 9.82629C39.6232 5.05318 33.3677 2.66663 27.1103 2.66663C20.8548 2.66663 14.5992 5.05318 9.82617 9.82629C0.279948 19.3725 0.279948 34.8502 9.82617 44.3964C14.5984 49.1695 20.8557 51.5542 27.1103 51.5542C32.9808 51.5542 38.8497 49.4543 43.4975 45.2504L59.2348 60.9877L59.2456 60.9752C59.4676 61.1973 59.772 61.3333 60.1103 61.3333C60.7853 61.3333 61.3332 60.7855 61.3332 60.1123C61.3331 59.7004 61.129 59.3369 60.8174 59.1167ZM27.1103 49.1122C24.2529 49.1122 21.467 48.5679 18.8308 47.5009C16.1031 46.3945 13.6548 44.7688 11.5538 42.667C9.45366 40.5669 7.82714 38.1194 6.72163 35.3909C5.65279 32.7555 5.11035 29.9697 5.11035 27.1113C5.11035 24.2521 5.65279 21.4672 6.72163 18.8309C7.82714 16.1032 9.45377 13.6558 11.5538 11.5548C13.6548 9.45378 16.1031 7.82818 18.8308 6.72175C21.4662 5.65291 24.252 5.11128 27.1103 5.11128C29.9695 5.11128 32.7553 5.65291 35.3908 6.72175C38.1193 7.82818 40.5649 9.45378 42.6667 11.5548C44.7687 13.6557 46.3943 16.1032 47.5008 18.8309C48.5678 21.4672 49.1103 24.2521 49.1103 27.1113C49.1103 29.9696 48.5678 32.7555 47.5008 35.3909C46.3944 38.1194 44.7687 40.5669 42.6667 42.667C40.5649 44.7688 38.1175 46.3944 35.3908 47.5009C32.7553 48.5679 29.9695 49.1122 27.1103 49.1122Z" fill="#BABAC0"/>
<path d="M31.9997 33.2219C32.6747 33.2219 33.2207 32.675 33.2207 31.9999V28.3333C33.2207 27.6582 32.6746 27.1113 31.9997 27.1113C31.3248 27.1113 30.7769 27.6582 30.7769 28.3333V31.9999C30.7769 32.675 31.3247 33.2219 31.9997 33.2219Z" fill="#FBC100"/>
<path d="M27.1101 33.2219C27.7851 33.2219 28.3329 32.675 28.3329 31.9999V28.3333C28.3329 27.6582 27.7851 27.1113 27.1101 27.1113C26.4351 27.1113 25.8882 27.6582 25.8882 28.3333V31.9999C25.8882 32.675 26.4352 33.2219 27.1101 33.2219Z" fill="#FBC100"/>
<path d="M22.222 33.2219C22.8971 33.2219 23.444 32.675 23.444 31.9999V28.3333C23.444 27.6582 22.8971 27.1113 22.222 27.1113C21.547 27.1113 21 27.6582 21 28.3333V31.9999C21 32.675 21.547 33.2219 22.222 33.2219Z" fill="#FBC100"/>
<path d="M39.333 22.2219H35.8184L30.5332 15.4006L30.5323 15.4015C30.3095 15.1132 29.9603 14.927 29.5673 14.927C28.8923 14.927 28.3454 15.474 28.3454 16.149C28.3454 16.431 28.4421 16.6906 28.6023 16.8973H28.6014L32.7264 22.2219H21.4776L25.632 16.8597L25.6311 16.8588C25.7913 16.652 25.888 16.3934 25.888 16.1114C25.888 15.4356 25.3411 14.8885 24.6661 14.8885C24.2731 14.8885 23.9239 15.0747 23.7011 15.363L23.6992 15.3621L18.3846 22.2219H14.8879C14.2129 22.2219 13.666 22.7698 13.666 23.4447C13.666 24.1197 14.2129 24.6666 14.8879 24.6666H15.2639L17.3327 38.1122H36.887L38.957 24.6666H39.333C40.008 24.6666 40.554 24.1197 40.554 23.4447C40.554 22.7698 40.008 22.2219 39.333 22.2219ZM34.7907 35.6666H19.4295L17.7375 24.6666H36.4827L34.7907 35.6666Z" fill="#FBC100"/>
</svg>
